<svg width="548" height="142" viewBox="0 0 548 142" fill="none" xmlns="http://www.w3.org/2000/svg">
<path d="M185.6 42.7C188.9 42.7 191.9 43.3 194.6 44.4C197.3 45.6 199.5 47.1 201.1 48.9C202.8 50.8 204 52.9 204.9 55.3C205.8 57.7 206.2 60.1 206.2 62.6C206.2 65.1 205.8 67.5 204.9 69.9C204 72.3 202.7 74.4 201.1 76.3C199.4 78.2 197.3 79.7 194.6 80.8C191.9 82 188.9 82.5 185.6 82.5H169.6V99.1H159V42.8C162 42.8 166.4 42.8 172.3 42.8C178.2 42.7 182.6 42.7 185.6 42.7ZM169.6 52.9V72.9H185.6C188.8 72.9 191.4 71.9 193.2 69.8C195 67.7 195.9 65.4 195.9 62.9C195.9 60.4 195 58.1 193.2 56C191.4 53.9 188.9 52.9 185.7 52.9H169.6Z" fill="url(#paint0_linear)"/>
<path d="M211.1 59.5H220.2L220.9 64.1C222.3 61.8 223.9 60.3 225.7 59.6C227.5 58.8 229.7 58.5 232.1 58.5C236.4 58.5 239.8 59.8 242.3 62.3L237.9 70.8C235.9 69.1 233.5 68.2 230.8 68.2C227.9 68.2 225.6 69 223.7 70.7C221.8 72.3 220.9 74.9 220.9 78.3V99.3H211.1V59.5Z" fill="url(#paint1_linear)"/>
<path d="M249.9 64.7C253.7 60.7 258.6 58.7 264.8 58.7C271 58.7 276 60.7 279.8 64.7C283.6 68.7 285.6 73.6 285.6 79.5C285.6 85.4 283.7 90.3 280 94.3C276.2 98.3 271.2 100.2 264.9 100.2C258.6 100.2 253.6 98.2 249.9 94.3C246.2 90.3 244.3 85.4 244.3 79.5C244.2 73.6 246.1 68.6 249.9 64.7ZM264.9 67.6C261.5 67.6 258.9 68.8 257 71.1C255.1 73.4 254.1 76.2 254.1 79.4C254.1 82.6 255.1 85.4 257 87.7C258.9 90 261.6 91.1 264.9 91.1C268.2 91.1 270.9 90 272.8 87.7C274.7 85.4 275.7 82.7 275.7 79.4C275.7 76.3 274.7 73.5 272.7 71.2C270.6 68.8 268 67.6 264.9 67.6Z" fill="url(#paint2_linear)"/>
<path d="M296.1 64.7C299.9 60.7 304.8 58.7 311 58.7C317.2 58.7 322.2 60.7 326 64.7C329.8 68.7 331.8 73.6 331.8 79.5C331.8 85.4 329.9 90.3 326.2 94.3C322.4 98.3 317.4 100.2 311.1 100.2C304.8 100.2 299.8 98.2 296.1 94.3C292.4 90.3 290.5 85.4 290.5 79.5C290.5 73.6 292.4 68.6 296.1 64.7ZM311.1 67.6C307.7 67.6 305.1 68.8 303.2 71.1C301.3 73.4 300.3 76.2 300.3 79.4C300.3 82.6 301.3 85.4 303.2 87.7C305.1 90 307.8 91.1 311.1 91.1C314.5 91.1 317.1 90 319 87.7C320.9 85.4 321.9 82.7 321.9 79.4C321.9 76.3 320.9 73.5 318.9 71.2C316.9 68.8 314.3 67.6 311.1 67.6Z" fill="url(#paint3_linear)"/>
<path d="M351.7 99.2H341.9V68.6H334.5V60H341.9V57.3C341.9 52.2 343.4 48.4 346.3 45.7C349.2 43 352.8 41.7 357.1 41.7C360.6 41.7 364.1 42.8 367.4 44.9L363.8 52.2C361.6 50.8 359.6 50.1 357.8 50.1C356 50.1 354.6 50.7 353.5 51.9C352.4 53.1 351.8 54.9 351.8 57.2V59.9H363.5V68.5H351.8V99.2H351.7Z" fill="url(#paint4_linear)"/>
<path d="M414.3 84.8L421.6 92.1C416 97.7 408.8 100.5 400.2 100.5C395.1 100.5 390.7 99.7 386.7 98C382.8 96.4 379.6 94.2 377.3 91.4C375 88.6 373.2 85.6 372 82.2C370.8 78.8 370.2 75.2 370.2 71.4C370.2 67.6 370.8 64 372 60.5C373.2 57 375 53.8 377.4 51C379.8 48.2 382.9 45.9 386.9 44.2C390.8 42.5 395.2 41.7 400.1 41.7C408.1 41.7 415 44.6 420.8 50.3L413.7 57.2C410.1 53.7 405.6 51.9 400.1 51.9C393.8 51.9 388.9 53.8 385.6 57.7C382.3 61.6 380.6 66.2 380.7 71.4C380.8 76.7 382.4 81.2 385.6 84.9C388.8 88.6 393.7 90.5 400.1 90.5C402.6 90.5 405.2 90 407.7 89C410.3 88.1 412.5 86.6 414.3 84.8Z" fill="#606060"/>
<path d="M424.3 59.5H433.4L434.1 64.1C435.5 61.8 437.1 60.3 438.9 59.6C440.7 58.8 442.9 58.5 445.3 58.5C449.6 58.5 453 59.8 455.5 62.3L451.1 70.8C449.1 69.1 446.7 68.2 444 68.2C441.1 68.2 438.8 69 436.9 70.7C435 72.3 434.1 74.9 434.1 78.3V99.3H424.3V59.5Z" fill="#606060"/>
<path d="M498.8 82.9H467.8C468.1 85.4 469.3 87.5 471.4 89C473.5 90.6 476.2 91.3 479.6 91.3C481.5 91.3 483.5 91 485.6 90.3C487.6 89.6 489.2 88.7 490.3 87.6L496.6 93.8C494.6 95.9 492.1 97.5 488.9 98.6C485.8 99.7 482.6 100.3 479.5 100.3C472.7 100.3 467.4 98.4 463.5 94.5C459.6 90.7 457.7 85.5 457.7 79.1C457.7 73 459.6 68 463.5 64.1C467.3 60.2 472.5 58.3 478.9 58.3C485.7 58.3 491 60.4 494.6 64.6C498.1 68.8 499.5 74.9 498.8 82.9ZM467.9 74.7H489.3C489 72.2 487.9 70.3 486.1 68.9C484.3 67.6 481.9 66.9 479 66.9C476.3 66.9 473.9 67.6 471.9 68.9C469.9 70.3 468.6 72.2 467.9 74.7Z" fill="#606060"/>
<path d="M537.8 42.9H547.6V99.3H538.4L537.8 93.8C535.1 98 530.8 100.2 525 100.2C519 100.2 514.1 98.3 510.3 94.6C506.5 90.9 504.5 85.8 504.5 79.4C504.5 72.7 506.4 67.6 510.1 64C513.8 60.4 518.7 58.6 524.7 58.6C527 58.6 529.5 59.2 532.2 60.3C534.9 61.5 536.7 63 537.8 64.9V42.9ZM525.6 67.7C522.4 67.7 519.7 68.8 517.5 70.9C515.3 73 514.3 75.8 514.3 79.3C514.3 82.7 515.4 85.5 517.6 87.7C519.8 89.9 522.5 91 525.6 91C528.8 91 531.6 89.9 533.8 87.8C536 85.7 537.1 82.8 537.1 79.3C537.1 75.9 536 73.1 533.7 71C531.5 68.8 528.8 67.7 525.6 67.7Z" fill="#606060"/>
<path d="M47.9 47.7C45.8 50.3 44 53 42.7 56C46.9 56 51.7 56 57 56C57.1 55.8 57.3 55.6 57.4 55.4C61.3 50.9 66.9 48.6 74.3 48.6C80.7 48.6 86 50.7 90.2 54.8L98.5 46.8C91.7 40.1 83.6 36.7 74.4 36.7C68.7 36.7 63.6 37.7 59 39.7C54.3 41.7 50.6 44.4 47.9 47.7Z" fill="#606060"/>
<path d="M54.4 100.4V82.8C52.8 79.8 52 76.6 51.7 73H39.4C39.5 76.9 40.2 80.6 41.4 84.1C42.8 88 44.8 91.6 47.6 94.9C49.5 96.9 51.7 98.8 54.4 100.4Z" fill="#606060"/>
<path d="M71 0C31.8 0 0 31.9 0 71C0 102.9 21.2 130 50.3 138.9C52.5 139.6 54.7 140.1 57 140.6C61 141.4 65.2 141.9 69.4 142V133.2V109.4V105.1V105H72H79.9H88C91.9 105 95.4 104.3 98.5 103C101.6 101.7 104.2 99.9 106.1 97.7C108 95.5 109.5 93.1 110.6 90.3C111.6 87.5 112.1 84.7 112.1 81.8C112.1 78.9 111.6 76 110.6 73.3C109.6 70.5 108.1 68 106.1 65.9C104.2 63.7 101.6 62 98.5 60.6C95.4 59.3 91.9 58.6 88 58.6C86.1 58.6 83.8 58.6 80.9 58.6C75.6 58.6 69.6 58.6 62.8 58.6C47.9 58.6 36.8 58.6 29.3 58.6V70.3H56.1H80.9H88C91.8 70.3 94.7 71.5 96.8 73.9C98.9 76.3 100 79 100 81.9C100 84.8 99 87.5 96.9 89.9C96.4 90.4 95.9 90.9 95.3 91.4C93.4 92.8 91 93.6 88.1 93.6H76.2H72.2H72.1H69.5V93.3V80.2H57V86.7V93.7V101.8V109.5V131.7C54.7 131.2 52.5 130.5 50.3 129.7C26.1 121.1 8.79999 98 8.79999 71C8.79999 36.7 36.7 8.70001 71.1 8.70001C105.5 8.70001 133.4 36.6 133.4 71C133.4 103.6 108.2 130.5 76.2 133.1V141.9C113 139.3 142.1 108.5 142.1 71.1C142 31.8 110.2 0 71 0Z" fill="url(#paint5_linear)"/>
<defs>
<linearGradient id="paint0_linear" x1="158.99" y1="70.9843" x2="206.318" y2="70.9843" gradientUnits="userSpaceOnUse">
<stop offset="0.1163" stop-color="#007EE0"/>
<stop offset="0.9381" stop-color="#007EE0"/>
</linearGradient>
<linearGradient id="paint1_linear" x1="211.075" y1="78.8454" x2="242.358" y2="78.8454" gradientUnits="userSpaceOnUse">
<stop offset="0.1163" stop-color="#007EE0"/>
<stop offset="0.9381" stop-color="#007EE0"/>
</linearGradient>
<linearGradient id="paint2_linear" x1="244.212" y1="79.4098" x2="285.574" y2="79.4098" gradientUnits="userSpaceOnUse">
<stop offset="0.1163" stop-color="#007EE0"/>
<stop offset="0.9381" stop-color="#007EE0"/>
</linearGradient>
<linearGradient id="paint3_linear" x1="290.491" y1="79.4098" x2="331.853" y2="79.4098" gradientUnits="userSpaceOnUse">
<stop offset="0.1163" stop-color="#007EE0"/>
<stop offset="0.9381" stop-color="#007EE0"/>
</linearGradient>
<linearGradient id="paint4_linear" x1="334.433" y1="70.5408" x2="367.329" y2="70.5408" gradientUnits="userSpaceOnUse">
<stop offset="0.1163" stop-color="#007EE0"/>
<stop offset="0.9381" stop-color="#007EE0"/>
</linearGradient>
<linearGradient id="paint5_linear" x1="-0.0316" y1="70.9821" x2="142.032" y2="70.9821" gradientUnits="userSpaceOnUse">
<stop offset="0.1163" stop-color="#007EE0"/>
<stop offset="0.9381" stop-color="#007EE0"/>
</linearGradient>
</defs>
</svg>
