<svg width="397" height="86" viewBox="0 0 397 86" fill="none" 
  xmlns="http://www.w3.org/2000/svg">
  <path d="M135.642 37.0225C138.319 36.4794 140.374 35.5291 141.806 34.1714C143.239 32.8139 144.293 31.1982 144.969 29.3248C145.645 27.4242 146.078 25.3333 146.267 23.0525C146.483 20.7444 146.699 18.3551 146.916 15.8842C147.159 13.3862 147.551 10.8882 148.092 8.39013C148.633 5.86496 149.579 3.43481 150.93 1.09969C151.012 0.909599 151.201 0.678825 151.498 0.407301C151.796 0.135778 152.188 0 152.674 0C153.188 0 153.729 0.0678728 154.296 0.20365C154.891 0.339396 155.432 0.529485 155.918 0.773853C156.405 0.991066 156.797 1.24903 157.094 1.54771C157.419 1.84638 157.581 2.15863 157.581 2.48446C157.581 2.89176 157.365 3.204 156.932 3.42121C156.067 4.72455 155.378 6.1772 154.864 7.77921C154.377 9.35404 153.985 11.0103 153.688 12.7481C153.391 14.4588 153.134 16.2238 152.917 18.0428C152.701 19.8621 152.444 21.6678 152.147 23.4599C151.877 25.2246 151.512 26.9624 151.052 28.6729C150.593 30.3566 149.971 31.9449 149.187 33.4383C148.403 34.9045 147.389 36.2351 146.146 37.4297C144.929 38.6244 143.401 39.629 141.563 40.4437C143.509 41.5027 145.118 42.7789 146.389 44.2723C147.686 45.7657 148.781 47.3947 149.673 49.1597C150.566 50.8974 151.323 52.7304 151.944 54.6581C152.593 56.5587 153.242 58.446 153.891 60.3194C154.567 62.1927 155.31 63.9985 156.121 65.7362C156.932 67.5012 157.973 69.0897 159.244 70.5016C159.352 70.6372 159.487 70.7323 159.649 70.7867C159.838 70.8683 160.014 70.9359 160.176 70.9903C160.366 71.0719 160.514 71.1531 160.622 71.2347C160.758 71.3434 160.825 71.479 160.825 71.6418C160.825 72.0493 160.595 72.4973 160.136 72.986C159.676 73.502 159.122 73.9771 158.473 74.4115C157.851 74.873 157.23 75.2533 156.608 75.552C155.986 75.8505 155.513 76 155.188 76C154.783 76 154.418 75.8236 154.093 75.4705C152.931 74.0043 151.958 72.4837 151.174 70.9087C150.39 69.3613 149.7 67.7863 149.106 66.1842C148.538 64.5824 148.038 62.9938 147.605 61.4192C147.173 59.817 146.727 58.2829 146.267 56.8166C145.835 55.3233 145.334 53.9114 144.767 52.5808C144.226 51.2506 143.55 50.042 142.739 48.9561C141.928 47.8427 140.941 46.8788 139.779 46.0641C138.643 45.2226 137.265 44.5708 135.642 44.1092V62.9666C135.642 63.6729 135.413 64.1616 134.953 64.4328C134.494 64.7316 133.953 64.8811 133.331 64.8811C132.844 64.8811 132.358 64.8131 131.871 64.6772C131.385 64.5416 130.938 64.3652 130.533 64.148C130.154 63.9305 129.83 63.6729 129.56 63.3741C129.316 63.1026 129.195 62.8038 129.195 62.4779V10.6709C127.329 10.9153 125.559 11.4448 123.882 12.2594C122.233 13.0739 120.787 14.1872 119.543 15.5991C118.327 17.0109 117.354 18.7218 116.624 20.7308C115.921 22.7401 115.569 25.0618 115.569 27.6955C115.569 29.3792 115.745 30.8997 116.097 32.2572C116.448 33.5878 116.867 34.7281 117.354 35.6783C117.84 36.6018 118.327 37.3213 118.814 37.8372C119.3 38.3531 119.679 38.6108 119.949 38.6108C120.192 38.6108 120.422 38.5567 120.638 38.448C120.855 38.3395 121.071 38.2851 121.287 38.2851C121.72 38.2851 121.936 38.6244 121.936 39.3034C121.936 40.1721 121.733 41.014 121.328 41.8286C120.949 42.6158 120.463 43.2677 119.868 43.7836C119.273 44.2723 118.624 44.5843 117.921 44.7203C117.218 44.8559 116.57 44.7067 115.975 44.2723C115.245 43.7836 114.461 43.0369 113.623 42.0322C112.812 41.0276 112.055 39.8193 111.352 38.4072C110.676 36.9682 110.108 35.3527 109.649 33.5606C109.216 31.7685 109 29.8135 109 27.6955C109 24.763 109.351 22.143 110.054 19.8349C110.757 17.5 111.69 15.4635 112.852 13.7257C114.042 11.9878 115.421 10.508 116.989 9.28617C118.557 8.0643 120.206 7.07323 121.936 6.31297C123.666 5.55268 125.423 5.00964 127.208 4.6838C128.992 4.33084 130.695 4.15435 132.317 4.15435C132.75 4.15435 133.169 4.24938 133.574 4.43943C133.98 4.60237 134.331 4.84674 134.629 5.17257C134.926 5.47125 135.169 5.8378 135.359 6.27223C135.548 6.70668 135.642 7.16826 135.642 7.65703V37.0225ZM160.217 34.7824C160.217 33.995 160.149 33.4247 160.014 33.0719C159.906 32.7187 159.852 32.3931 159.852 32.0944C159.852 31.6869 160.068 31.3613 160.501 31.1169C160.933 30.8454 161.447 30.7094 162.042 30.7094C163.421 30.7094 164.502 31.0761 165.286 31.8092C166.097 32.5152 166.502 33.3706 166.502 34.3753V38.122C167.07 36.9546 167.679 35.8687 168.327 34.864C169.003 33.8593 169.719 32.9903 170.476 32.2572C171.26 31.4969 172.085 30.913 172.95 30.5058C173.842 30.0715 174.802 29.8543 175.829 29.8543C177.208 29.8543 178.343 30.1123 179.236 30.6282C180.128 31.1441 180.831 31.8092 181.344 32.6239C181.858 33.4383 182.209 34.3481 182.399 35.3527C182.615 36.3574 182.723 37.3349 182.723 38.2851V55.554C182.723 55.744 182.737 56.0564 182.764 56.4907C182.791 56.8982 182.872 57.319 183.007 57.7533C183.142 58.188 183.345 58.568 183.615 58.8939C183.913 59.2195 184.332 59.3827 184.872 59.3827C185.711 59.3827 186.427 59.0839 187.021 58.4864C187.643 57.8893 188.171 57.1426 188.603 56.2464C189.063 55.3504 189.428 54.3866 189.698 53.3547C189.995 52.2957 190.239 51.3046 190.428 50.3815C190.59 49.5128 190.861 48.8881 191.239 48.5081C191.618 48.1007 192.009 47.8971 192.415 47.8971C192.739 47.8971 193.077 48.0058 193.429 48.223C193.78 48.413 194.091 48.6709 194.362 48.9969C194.659 49.3225 194.888 49.6892 195.051 50.0964C195.24 50.5039 195.335 50.911 195.335 51.3182C195.335 51.3726 195.335 51.4406 195.335 51.5218C195.335 51.6034 195.308 51.7257 195.254 51.8885C194.902 53.2732 194.415 54.7261 193.794 56.2464C193.199 57.7669 192.415 59.1655 191.442 60.4417C190.495 61.7176 189.36 62.7766 188.035 63.6185C186.711 64.46 185.156 64.8811 183.372 64.8811C182.264 64.8811 181.277 64.6639 180.412 64.2293C179.573 63.8221 178.844 63.2654 178.222 62.5595C177.627 61.8535 177.167 61.0253 176.843 60.075C176.546 59.1247 176.397 58.12 176.397 57.061V40.1178C176.397 39.4662 176.383 38.8551 176.356 38.2851C176.33 37.7149 176.248 37.2125 176.113 36.7782C176.005 36.3438 175.829 36.0043 175.586 35.7599C175.37 35.4884 175.059 35.3527 174.653 35.3527C174.059 35.3527 173.329 35.7599 172.463 36.5746C171.598 37.3889 170.747 38.448 169.909 39.7514C169.071 41.0548 168.327 42.5346 167.679 44.1908C167.057 45.8198 166.665 47.4627 166.502 49.1189V61.2968C166.502 61.704 166.489 62.1251 166.462 62.5595C166.462 62.9666 166.381 63.3333 166.218 63.6593C166.083 64.0121 165.854 64.2972 165.529 64.5144C165.232 64.7588 164.786 64.8811 164.191 64.8811C163.785 64.8811 163.339 64.8267 162.853 64.718C162.393 64.6367 161.961 64.46 161.555 64.1885C161.177 63.9441 160.852 63.5777 160.582 63.089C160.338 62.6274 160.217 62.0027 160.217 61.2153V34.7824ZM220.598 48.793C220.652 48.4674 220.828 48.1958 221.125 47.9786C221.45 47.7614 221.815 47.6119 222.22 47.5307C222.626 47.4491 223.045 47.4491 223.478 47.5307C223.937 47.6119 224.329 47.8019 224.654 48.1006C225.005 48.3722 225.248 48.7661 225.383 49.2817C225.546 49.7708 225.532 50.4087 225.343 51.1962C225.1 52.3365 224.694 53.4091 224.126 54.4137C223.586 55.3912 222.896 56.26 222.058 57.0202C221.22 57.7805 220.233 58.378 219.098 58.8124C217.962 59.2467 216.692 59.4639 215.286 59.4639C214.529 59.4639 213.813 59.4234 213.137 59.3419C212.488 59.2603 211.853 59.1111 211.231 58.8939C210.203 60.6861 208.879 62.1251 207.257 63.211C205.635 64.3244 203.634 64.8811 201.255 64.8811C199.146 64.8811 197.335 64.46 195.821 63.6185C194.307 62.8038 193.05 61.6907 192.05 60.2786C191.05 58.8396 190.306 57.1834 189.82 55.3097C189.36 53.4363 189.13 51.4541 189.13 49.3633C189.13 46.2952 189.482 43.5528 190.184 41.136C190.915 38.6923 191.753 36.6286 192.699 34.9452C193.645 33.2347 194.578 31.9313 195.497 31.0354C196.443 30.1394 197.146 29.6912 197.605 29.6912C198.146 29.6912 198.633 29.9355 199.066 30.4243C199.525 30.8861 199.849 31.4425 200.039 32.0944C200.255 32.7187 200.309 33.357 200.201 34.0086C200.12 34.6601 199.809 35.1624 199.268 35.5155C198.944 36.0315 198.552 36.6286 198.092 37.3077C197.66 37.9864 197.241 38.8419 196.835 39.8734C196.457 40.878 196.132 42.1135 195.862 43.5797C195.592 45.0462 195.456 46.8108 195.456 48.8745C195.456 50.6395 195.605 52.1737 195.902 53.4771C196.227 54.7801 196.659 55.88 197.2 56.7759C197.768 57.6449 198.403 58.2965 199.106 58.7308C199.836 59.1655 200.606 59.3827 201.417 59.3827C202.607 59.3827 203.58 59.0975 204.337 58.5272C205.121 57.9301 205.783 57.1562 206.324 56.2059C204.378 54.5222 202.891 52.3908 201.863 49.8112C200.863 47.2047 200.363 44.3944 200.363 41.3804C200.363 40.0773 200.498 38.8418 200.769 37.6741C201.066 36.4794 201.485 35.434 202.026 34.5381C202.593 33.6419 203.296 32.9359 204.134 32.42C204.973 31.8772 205.946 31.6057 207.054 31.6057C208.027 31.6057 208.947 31.9585 209.812 32.6644C210.677 33.3706 211.434 34.3481 212.083 35.5971C212.731 36.8461 213.231 38.3259 213.583 40.0365C213.961 41.7471 214.151 43.6069 214.151 45.6162C214.151 47.164 214.056 48.6981 213.867 50.2187C213.677 51.7393 213.38 53.2055 212.975 54.6173C213.272 54.7261 213.542 54.7937 213.786 54.8209C214.056 54.8209 214.34 54.8209 214.637 54.8209C215.529 54.8209 216.313 54.6581 216.989 54.3322C217.692 54.0063 218.287 53.5719 218.774 53.0288C219.26 52.486 219.652 51.8477 219.95 51.1146C220.247 50.3815 220.463 49.6076 220.598 48.793ZM204.743 41.0548C204.743 42.9281 205.026 44.7067 205.594 46.3901C206.189 48.0735 206.96 49.5397 207.906 50.7887C208.068 49.4584 208.149 48.1822 208.149 46.9604C208.149 45.5485 208.122 44.2451 208.068 43.0505C208.041 41.8286 207.946 40.7832 207.784 39.9142C207.649 39.0454 207.446 38.3664 207.176 37.8777C206.933 37.3621 206.594 37.1041 206.162 37.1041C205.216 37.1041 204.743 38.4208 204.743 41.0548ZM235.157 34.7824C235.157 33.995 235.102 33.4247 234.994 33.0719C234.886 32.7187 234.832 32.3931 234.832 32.0944C234.832 31.6869 235.035 31.3613 235.44 31.1169C235.873 30.8454 236.387 30.7094 236.981 30.7094C238.36 30.7094 239.455 31.0761 240.266 31.8092C241.077 32.5152 241.483 33.3706 241.483 34.3753V53.4771C241.51 54.3458 241.577 55.1469 241.685 55.88C241.821 56.6131 242.037 57.2374 242.334 57.7533C242.631 58.2693 243.037 58.6768 243.551 58.9752C244.064 59.2467 244.727 59.3827 245.538 59.3827C246.322 59.3827 246.971 59.2331 247.484 58.9347C248.025 58.6088 248.458 58.1744 248.782 57.6313C249.106 57.0882 249.336 56.4638 249.471 55.7576C249.606 55.0245 249.674 54.2642 249.674 53.4771V34.7824C249.674 33.995 249.62 33.4247 249.512 33.0719C249.404 32.7187 249.35 32.3931 249.35 32.0944C249.35 31.6869 249.566 31.3613 249.998 31.1169C250.431 30.8454 250.945 30.7094 251.539 30.7094C252.918 30.7094 253.999 31.0761 254.783 31.8092C255.595 32.5152 256 33.3706 256 34.3753V53.4771C256 54.7801 255.865 56.1107 255.595 57.4685C255.351 58.7988 254.865 60.0206 254.135 61.134C253.405 62.2199 252.377 63.1162 251.053 63.8221C249.728 64.528 247.998 64.8811 245.862 64.8811C244.97 64.8811 244.132 64.7724 243.348 64.5552C242.564 64.338 241.847 64.0393 241.199 63.6593C240.55 63.3062 239.982 62.899 239.496 62.4371C239.009 61.9484 238.617 61.4328 238.32 60.8897C238.049 61.4328 237.643 61.9484 237.103 62.4371C236.589 62.899 235.994 63.3062 235.319 63.6593C234.643 64.0393 233.913 64.338 233.129 64.5552C232.345 64.7724 231.561 64.8811 230.777 64.8811C229.236 64.8811 227.911 64.7044 226.803 64.3516C225.722 63.9985 224.802 63.5097 224.045 62.8854C223.288 62.2879 222.68 61.5956 222.22 60.8081C221.788 60.0206 221.45 59.2063 221.207 58.3644C220.963 57.5226 220.801 56.6674 220.72 55.7984C220.666 54.9297 220.639 54.1286 220.639 53.3955V34.7824C220.639 33.995 220.572 33.4247 220.436 33.0719C220.328 32.7187 220.274 32.3931 220.274 32.0944C220.274 31.6869 220.49 31.3613 220.923 31.1169C221.355 30.8454 221.869 30.7094 222.464 30.7094C223.842 30.7094 224.924 31.0761 225.708 31.8092C226.519 32.5152 226.925 33.3706 226.925 34.3753V53.4771C226.925 54.2102 226.965 54.9433 227.046 55.6764C227.154 56.3823 227.343 57.0066 227.614 57.5498C227.911 58.0929 228.33 58.5408 228.871 58.8939C229.412 59.2195 230.128 59.3827 231.02 59.3827C231.804 59.3827 232.453 59.2331 232.967 58.9347C233.507 58.6088 233.94 58.1744 234.264 57.6313C234.589 57.0882 234.819 56.4638 234.954 55.7576C235.089 55.0245 235.157 54.2642 235.157 53.4771V34.7824Z" fill="#007EE0"/>
  <path d="M301.494 54.6081C300.628 56.0539 299.708 57.4175 298.733 58.6995C297.759 59.9541 296.73 61.0586 295.647 62.0134C294.591 62.9407 293.495 63.6634 292.358 64.1817C291.221 64.7272 290.057 65 288.866 65C288.271 65 287.634 64.8771 286.957 64.6316C286.308 64.3862 285.699 63.9772 285.13 63.4043C284.589 62.8588 284.129 62.1224 283.75 61.1951C283.398 60.2678 283.222 59.1085 283.222 57.7176V10.5459C281.354 10.7914 279.581 11.3233 277.902 12.1415C276.251 12.9597 274.803 14.078 273.557 15.4962C272.339 16.9144 271.365 18.633 270.634 20.6511C269.93 22.6694 269.578 25.0015 269.578 27.647C269.578 29.3383 269.754 30.8657 270.106 32.2293C270.458 33.5659 270.878 34.7113 271.365 35.6658C271.852 36.5934 272.339 37.3162 272.827 37.8344C273.314 38.3526 273.693 38.6115 273.964 38.6115C274.207 38.6115 274.437 38.5571 274.654 38.4479C274.87 38.339 275.087 38.2844 275.304 38.2844C275.737 38.2844 275.953 38.6251 275.953 39.3072C275.953 40.1798 275.75 41.0255 275.344 41.8438C274.965 42.6345 274.478 43.2893 273.882 43.8076C273.287 44.2985 272.637 44.6119 271.933 44.7485C271.23 44.8847 270.58 44.7348 269.984 44.2985C269.253 43.8076 268.468 43.0575 267.629 42.0483C266.817 41.0391 266.059 39.8255 265.355 38.407C264.678 36.9615 264.11 35.3388 263.65 33.5386C263.217 31.7384 263 29.7746 263 27.647C263 24.7014 263.352 22.0695 264.056 19.7511C264.76 17.4057 265.693 15.36 266.857 13.6144C268.049 11.8687 269.429 10.3823 270.999 9.15491C272.569 7.92754 274.221 6.93202 275.953 6.16834C277.686 5.40463 279.445 4.85914 281.232 4.53184C283.019 4.17729 284.724 4 286.349 4C286.782 4 287.201 4.09546 287.607 4.28637C288.013 4.45003 288.365 4.6955 288.663 5.0228C288.961 5.32283 289.204 5.69103 289.394 6.12741C289.584 6.56382 289.678 7.02748 289.678 7.51844V57.2267C289.678 57.7722 289.759 58.1129 289.922 58.2495C290.111 58.3584 290.287 58.413 290.45 58.413C290.856 58.413 291.411 58.1266 292.114 57.5541C292.818 56.9539 293.576 56.1765 294.388 55.2219C295.228 54.2401 296.067 53.1217 296.906 51.867C297.745 50.5851 298.503 49.2625 299.18 47.8986C299.857 46.535 300.412 45.1711 300.845 43.8076C301.278 42.4437 301.494 41.1617 301.494 39.9617V8.13211C301.494 7.34115 301.44 6.76838 301.332 6.41381C301.224 6.05923 301.17 5.73193 301.17 5.4319C301.17 5.0228 301.373 4.68185 301.779 4.4091C302.212 4.13636 302.726 4 303.322 4C304.702 4 305.826 4.3682 306.692 5.1046C307.558 5.81376 307.991 6.68655 307.991 7.72298V44.053C307.991 46.8078 308.005 49.1942 308.032 51.2125C308.086 53.2036 308.154 54.9219 308.235 56.3674C308.316 57.7859 308.398 58.9859 308.479 59.9678C308.56 60.9223 308.641 61.7407 308.722 62.4224C308.885 62.6679 308.966 62.8588 308.966 62.9953C308.966 63.2681 308.831 63.5272 308.56 63.7727C308.289 64.0181 307.951 64.2226 307.545 64.3862C307.139 64.577 306.678 64.7272 306.164 64.8362C305.677 64.9454 305.203 65 304.743 65C304.012 65 303.444 64.7818 303.037 64.3452C302.632 63.9362 302.32 63.3087 302.104 62.4634C301.914 61.5905 301.779 60.5133 301.698 59.2314C301.616 57.9494 301.549 56.4629 301.494 54.772V54.6081ZM320.376 51.1716C320.16 52.0445 319.754 52.5898 319.158 52.8082C318.562 52.9991 317.967 52.9718 317.371 52.7263C316.803 52.4808 316.316 52.0582 315.91 51.458C315.531 50.8578 315.422 50.2034 315.585 49.4943C315.991 47.6395 316.573 45.5938 317.331 43.3573C318.116 41.0938 318.887 38.8436 319.645 36.6071C319.239 35.9796 318.914 35.3524 318.671 34.7249C318.427 34.0705 318.305 33.3884 318.305 32.6793C318.305 31.9702 318.562 31.2338 319.077 30.4701C319.618 29.679 320.255 28.9563 320.986 28.3018C321.743 27.647 322.515 27.1154 323.3 26.7061C324.112 26.2698 324.802 26.0516 325.371 26.0516C326.372 26.0516 327.117 26.3924 327.604 27.0745C328.119 27.7563 328.376 28.6699 328.376 29.8156C328.376 30.4428 328.267 31.0702 328.051 31.6974C327.861 32.2976 327.645 32.8701 327.401 33.4157C327.158 33.9339 326.927 34.3839 326.711 34.7659C326.521 35.1476 326.413 35.3931 326.386 35.5023C327.361 37.2479 328.376 38.789 329.432 40.1252C330.487 41.4618 331.448 42.7847 332.315 44.0937C333.208 45.4029 333.939 46.7941 334.507 48.2669C335.076 49.7397 335.36 51.4717 335.36 53.4627C335.36 53.9537 335.319 54.4582 335.238 54.9765C335.184 55.4947 335.089 55.9857 334.954 56.4493C335.928 56.2584 336.781 55.9584 337.512 55.5493C338.27 55.14 338.92 54.6764 339.461 54.1582C340.03 53.6126 340.49 53.0264 340.842 52.3989C341.221 51.7718 341.532 51.117 341.776 50.4352C342.073 49.6442 342.371 49.0716 342.669 48.7169C342.967 48.3622 343.305 48.185 343.684 48.185C344.036 48.185 344.388 48.3079 344.74 48.5534C345.119 48.7715 345.444 49.058 345.715 49.4123C346.012 49.767 346.242 50.1351 346.405 50.5171C346.594 50.8988 346.689 51.2399 346.689 51.5399C346.689 51.9489 346.581 52.4399 346.364 53.0127C346.148 53.5853 345.85 54.1718 345.471 54.772C345.119 55.3718 344.713 55.9584 344.253 56.5312C343.793 57.0765 343.319 57.554 342.831 57.9631C341.532 59.0269 340.003 59.9268 338.243 60.6632C336.483 61.3723 334.304 61.8223 331.705 62.0134C330.704 62.8861 329.513 63.5952 328.132 64.1407C326.778 64.7136 325.249 65 323.543 65C322.677 65 321.784 64.8908 320.864 64.6726C319.97 64.4545 319.104 64.168 318.265 63.8133C317.453 63.4862 316.708 63.1179 316.032 62.7089C315.355 62.2995 314.813 61.8905 314.407 61.4815C313.378 60.4997 312.715 59.5178 312.417 58.5359C312.12 57.5267 312.052 56.6265 312.214 55.8355C312.35 55.0448 312.634 54.4036 313.067 53.9127C313.5 53.3944 313.947 53.1353 314.407 53.1353C314.678 53.1353 315.097 53.2582 315.666 53.5037C316.262 53.7218 316.938 54.0219 317.696 54.4036C318.454 54.7583 319.28 55.14 320.173 55.5493C321.066 55.9584 321.96 56.3537 322.853 56.7357C323.746 57.0901 324.613 57.3902 325.452 57.6357C326.318 57.8538 327.103 57.9631 327.807 57.9631C328.267 57.4175 328.687 56.6948 329.066 55.7948C329.445 54.8946 329.635 53.9127 329.635 52.8489C329.635 51.5399 329.458 50.3259 329.107 49.2078C328.755 48.0894 328.294 47.0533 327.726 46.0984C327.158 45.1438 326.508 44.2575 325.777 43.4392C325.073 42.5936 324.356 41.8029 323.625 41.0664C322.975 42.6755 322.407 44.2712 321.919 45.8529C321.432 47.4076 320.918 49.1805 320.376 51.1716ZM361.348 38.2844C361.348 39.8391 361.077 41.4345 360.536 43.0712C360.021 44.7075 359.236 46.2622 358.18 47.735C357.152 49.1805 355.866 50.4898 354.323 51.6625C352.807 52.8082 351.047 53.6809 349.044 54.281C349.315 54.9901 349.667 55.6719 350.1 56.3264C350.56 56.9539 351.102 57.4994 351.724 57.9631C352.347 58.4267 353.064 58.795 353.876 59.0675C354.715 59.3403 355.676 59.4768 356.759 59.4768C358.384 59.4768 359.778 59.1767 360.942 58.5766C362.106 57.9494 363.08 57.1311 363.865 56.1219C364.677 55.1127 365.327 53.981 365.815 52.7263C366.302 51.4717 366.667 50.2034 366.911 48.9214C367.1 47.9942 367.479 47.3803 368.048 47.0806C368.643 46.7532 369.239 46.6712 369.834 46.8348C370.457 46.9986 370.985 47.353 371.418 47.8986C371.878 48.4168 372.068 49.0443 371.987 49.7807C371.878 50.626 371.689 51.5942 371.418 52.6853C371.174 53.7765 370.795 54.8809 370.281 55.9993C369.767 57.1174 369.103 58.2222 368.292 59.313C367.506 60.3768 366.532 61.3313 365.368 62.177C364.204 63.0226 362.837 63.7044 361.267 64.2226C359.696 64.7409 357.896 65 355.866 65C353.971 65 352.13 64.618 350.344 63.8543C348.584 63.1179 347.014 62.0541 345.633 60.6632C344.28 59.245 343.183 57.5131 342.344 55.4674C341.532 53.3944 341.126 51.049 341.126 48.4305C341.126 45.7849 341.491 43.3303 342.222 41.0664C342.953 38.7753 343.914 36.7979 345.105 35.1339C346.296 33.4703 347.65 32.1747 349.166 31.2474C350.682 30.2929 352.238 29.8156 353.836 29.8156C355 29.8156 356.042 30.0201 356.962 30.4291C357.91 30.8384 358.708 31.4246 359.358 32.1883C360.008 32.9247 360.495 33.8113 360.82 34.8478C361.172 35.884 361.348 37.0297 361.348 38.2844ZM347.948 48.185C347.948 48.4305 347.961 48.6759 347.989 48.9214C348.015 49.1669 348.029 49.426 348.029 49.6988C349.058 49.2078 349.991 48.5804 350.831 47.817C351.67 47.0532 352.387 46.1803 352.983 45.1984C353.578 44.2166 354.039 43.1528 354.364 42.0074C354.688 40.8346 354.851 39.6206 354.851 38.366C354.851 37.4387 354.688 36.716 354.364 36.1977C354.066 35.6795 353.646 35.4204 353.105 35.4204C352.428 35.4204 351.819 35.6522 351.277 36.1158C350.763 36.5798 350.303 37.1933 349.897 37.957C349.518 38.6934 349.193 39.539 348.922 40.4936C348.679 41.4208 348.476 42.3617 348.313 43.3166C348.151 44.2712 348.042 45.1848 347.989 46.0577C347.934 46.903 347.921 47.6121 347.948 48.185ZM385.021 65C384.047 65 383.045 64.8498 382.016 64.5497C381.015 64.2499 380.094 63.7317 379.255 62.9953C378.443 62.2589 377.766 61.2907 377.225 60.0903C376.71 58.863 376.453 57.3219 376.453 55.4674C376.453 52.7673 376.805 49.9169 377.509 46.9167C378.24 43.8892 379.282 40.5619 380.636 36.9341H374.301H373.367C373.34 37.7525 373.286 38.789 373.205 40.0436C373.151 41.2983 373.042 42.6345 372.88 44.053C372.718 45.4712 372.501 46.9031 372.23 48.3485C371.987 49.7944 371.675 51.1306 371.296 52.358C371.025 53.2309 370.592 53.7355 369.997 53.8717C369.428 54.0083 368.86 53.9127 368.292 53.5853C367.723 53.2309 367.263 52.7263 366.911 52.0715C366.559 51.417 366.478 50.7353 366.667 50.0262C366.884 49.1805 367.073 48.1577 367.236 46.9577C367.398 45.7303 367.52 44.4484 367.601 43.1118C367.709 41.7482 367.791 40.398 367.845 39.0617C367.899 37.6979 367.939 36.4842 367.967 35.4204C366.938 34.8478 366.085 34.1248 365.408 33.2521C364.732 32.3522 364.393 31.2884 364.393 30.0611C364.393 29.4882 364.502 28.97 364.718 28.5063C364.962 28.0154 365.273 27.6064 365.652 27.279C366.031 26.9243 366.478 26.6652 366.992 26.5016C367.506 26.3108 368.034 26.2152 368.576 26.2152C369.063 26.2152 369.564 26.2835 370.078 26.4197C370.619 26.5562 371.12 26.8017 371.58 27.1561C372.068 27.5108 372.501 27.9744 372.88 28.5473C373.259 29.1201 373.57 29.8292 373.814 30.6746C374.49 30.7565 375.059 30.8248 375.519 30.8791C376.006 30.9064 376.413 30.9337 376.737 30.961C377.062 30.9883 377.333 31.002 377.55 31.002C377.766 31.002 377.983 31.002 378.199 31.002H382.544C382.788 31.002 383.14 31.1519 383.6 31.4519C384.087 31.752 384.561 32.1474 385.021 32.6383C385.481 33.1022 385.86 33.6068 386.158 34.1521C386.483 34.6976 386.605 35.2159 386.524 35.7068C386.524 35.8704 386.429 36.266 386.239 36.8932C386.05 37.5207 385.82 38.3117 385.549 39.2662C385.278 40.2208 384.98 41.3256 384.656 42.5802C384.331 43.8076 384.033 45.1029 383.762 46.4667C383.492 47.8306 383.261 49.2488 383.072 50.7216C382.883 52.1671 382.788 53.5853 382.788 54.9765C382.788 55.5493 382.856 56.1082 382.991 56.6538C383.126 57.1993 383.329 57.6903 383.6 58.1266C383.871 58.5359 384.209 58.863 384.615 59.1085C385.048 59.3539 385.549 59.4768 386.117 59.4768C387.065 59.4768 387.877 59.1767 388.554 58.5766C389.231 57.9767 389.799 57.2267 390.259 56.3264C390.719 55.4265 391.085 54.4582 391.356 53.4218C391.653 52.358 391.897 51.3624 392.086 50.4352C392.249 49.5625 392.52 48.9351 392.899 48.5534C393.278 48.144 393.67 47.9395 394.076 47.9395C394.401 47.9395 394.74 48.0488 395.091 48.2669C395.443 48.4578 395.755 48.7169 396.025 49.0443C396.323 49.3714 396.553 49.7397 396.716 50.1487C396.905 50.5581 397 50.9671 397 51.3761C397 51.5126 396.986 51.6216 396.959 51.7035C396.932 51.7854 396.919 51.867 396.919 51.9489C396.54 53.3398 396.039 54.7993 395.416 56.3264C394.821 57.8538 394.049 59.2587 393.102 60.5406C392.154 61.8223 391.017 62.8861 389.691 63.7317C388.364 64.577 386.808 65 385.021 65Z" fill="white"/>
  <path d="M88.8869 26.0068H82.5668V52.5981C82.5676 53.5351 82.3814 54.4631 82.019 55.3289C81.6566 56.1947 81.1249 56.9814 80.4545 57.644C79.7842 58.3065 78.9882 58.8319 78.1121 59.1901C77.236 59.5483 76.2971 59.7323 75.349 59.7315H32V67.4344C32 68.0858 32.1305 68.7308 32.384 69.3321C32.6375 69.9334 33.009 70.4791 33.477 70.9377C33.9451 71.3964 34.5004 71.7589 35.1109 72.0044C35.7215 72.2498 36.3751 72.3733 37.0342 72.3678H69.3929L79.2612 85.2738C79.4795 85.5695 79.7852 85.791 80.1363 85.9077C80.4874 86.0244 80.8664 86.0306 81.2212 85.9253C81.5759 85.8201 81.8889 85.6086 82.1168 85.3201C82.3448 85.0317 82.4766 84.6804 82.494 84.3147V72.5177H88.9718C89.6299 72.5224 90.2824 72.3985 90.8919 72.1531C91.5013 71.9076 92.0556 71.5455 92.5229 71.0876C92.9902 70.6296 93.3613 70.0849 93.6148 69.4847C93.8683 68.8844 93.9992 68.2406 94 67.5902V30.9702C94.0017 30.3105 93.8702 29.6572 93.6132 29.0484C93.3561 28.4396 92.9788 27.8876 92.5031 27.4248C92.0275 26.962 91.4632 26.5977 90.8433 26.3532C90.2234 26.1086 89.5603 25.9888 88.893 26.0008L88.8869 26.0068Z" fill="white"/>
  <path d="M75.4474 1.00603H7.55861C5.57441 1.05461 3.68444 1.86238 2.27818 3.2629C0.871914 4.66341 0.0565105 6.54995 0 8.53374V52.2716C0.0489134 54.2607 0.860966 56.1548 2.26802 57.5617C3.67507 58.9686 5.56934 59.7806 7.55861 59.8295H14.5325V74.3183C14.529 74.6431 14.6206 74.9618 14.796 75.2351C14.9714 75.5084 15.223 75.7243 15.5198 75.8564C15.8165 75.9884 16.1454 76.0306 16.4659 75.978C16.7864 75.9253 17.0845 75.78 17.3233 75.5599L29.4086 59.8295H75.4474C77.4356 59.779 79.3284 58.9664 80.7342 57.5596C82.1399 56.1529 82.9512 54.2597 83 52.2716V8.53374C82.9466 6.55045 82.134 4.66329 80.7298 3.26151C79.3257 1.85972 77.437 1.05023 75.4535 1L75.4474 1.00603Z" fill="#007EE0"/>
  <circle cx="41" cy="31" r="5" fill="white"/>
  <ellipse cx="59.5" cy="31" rx="4.5" ry="5" fill="white"/>
  <circle cx="23" cy="31" r="5" fill="white"/>
</svg>
